name rise44.9368peak50.754fall52.0217.mot
datacolumns 19
datarows 32
range 22.14991700000000 22.20158600000000
endheader
time	ground_force1_vx	ground_force1_vy	ground_force1_vz	ground_force1_px	ground_force1_py	ground_force1_pz	ground_force2_vx	ground_force2_vy	ground_force2_vz	ground_force2_px	ground_force2_py	ground_force2_pz	ground_torque1_x	ground_torque1_y	ground_torque1_z	ground_torque2_x	ground_torque2_y	ground_torque2_z	
22.14991700000000	-51.16232100000000	807.62577499999998	56.26297600000000	0.17004700000000	0.00000000000000	0.09865400000000	-4.00603100000000	15.21187800000000	1.97043900000000	0.00000000000000	0.00000000000000	0.00000000000000	0.00000000000000	30.27909400000000	0.00000000000000	0.00000000000000	0.62029000000000	0.00000000000000	
22.15159000000000	-51.75149300000000	807.23329500000000	56.30297100000000	0.16911700000000	0.00000000000000	0.09862800000000	-5.10757600000000	20.18754100000000	2.56100400000000	0.00000000000000	0.00000000000000	0.00000000000000	0.00000000000000	30.21864200000000	0.00000000000000	0.00000000000000	0.81387800000000	0.00000000000000	
22.15325400000000	-52.35052000000000	806.74323800000002	56.32559500000000	0.16819100000000	0.00000000000000	0.09860100000000	-6.24003500000000	25.58003600000000	3.18430100000000	0.40695600000000	0.00000000000000	-0.10157900000000	0.00000000000000	30.15436700000000	0.00000000000000	0.00000000000000	1.68278500000000	0.00000000000000	
22.15491900000000	-52.95971500000000	806.15322500000002	56.33028000000000	0.16726700000000	0.00000000000000	0.09857100000000	-7.36428500000000	31.27299600000000	3.82259100000000	0.41095700000000	0.00000000000000	-0.10183100000000	0.00000000000000	30.08636300000000	0.00000000000000	0.00000000000000	2.05674300000000	0.00000000000000	
22.15658300000000	-53.57935200000000	805.46085100000005	56.31648800000000	0.16634600000000	0.00000000000000	0.09854000000000	-8.44148400000000	37.14470900000000	4.45778100000000	0.41462400000000	0.00000000000000	-0.10206600000000	0.00000000000000	30.01472300000000	0.00000000000000	0.00000000000000	2.44010700000000	0.00000000000000	
22.15825300000000	-54.20966400000000	804.66368599999998	56.28370600000000	0.16542800000000	0.00000000000000	0.09850600000000	-9.43587500000000	43.07806600000000	5.07276900000000	0.41800600000000	0.00000000000000	-0.10228600000000	0.00000000000000	29.93954500000000	0.00000000000000	0.00000000000000	2.82388400000000	0.00000000000000	
22.15991700000000	-54.85083800000000	803.75927500000000	56.23145100000000	0.16451400000000	0.00000000000000	0.09847000000000	-10.31712000000000	48.96931500000000	5.65259000000000	0.42114000000000	0.00000000000000	-0.10249200000000	0.00000000000000	29.86092500000000	0.00000000000000	0.00000000000000	3.19992000000000	0.00000000000000	
22.16159100000000	-55.50301200000000	802.74513600000000	56.15927200000000	0.16360400000000	0.00000000000000	0.09843200000000	-11.06193000000000	54.73467900000000	6.18526100000000	0.42406100000000	0.00000000000000	-0.10268700000000	0.00000000000000	29.77896100000000	0.00000000000000	0.00000000000000	3.56139000000000	0.00000000000000	
22.16326000000000	-56.16627400000000	801.61875999999995	56.06675000000000	0.16269900000000	0.00000000000000	0.09839100000000	-11.65489200000000	60.31441200000000	6.66225600000000	0.42679600000000	0.00000000000000	-0.10287200000000	0.00000000000000	29.69374900000000	0.00000000000000	0.00000000000000	3.90312300000000	0.00000000000000	
22.16491500000000	-56.84066200000000	800.37761300000000	55.95350000000000	0.16179800000000	0.00000000000000	0.09834800000000	-12.08853600000000	65.67425100000000	7.07862600000000	0.42936600000000	0.00000000000000	-0.10304800000000	0.00000000000000	29.60538600000000	0.00000000000000	0.00000000000000	4.22173300000000	0.00000000000000	
22.16658700000000	-57.52615300000000	799.01913500000001	55.81917300000000	0.16090100000000	0.00000000000000	0.09830300000000	-12.36273500000000	70.80454899999999	7.43281400000000	0.43179000000000	0.00000000000000	-0.10321700000000	0.00000000000000	29.51396400000000	0.00000000000000	0.00000000000000	4.51557700000000	0.00000000000000	
22.16825100000000	-58.22266900000000	797.54074300000002	55.66345700000000	0.16001000000000	0.00000000000000	0.09825500000000	-12.48361800000000	75.71751800000000	7.72620700000000	0.43408500000000	0.00000000000000	-0.10337900000000	0.00000000000000	29.41957300000000	0.00000000000000	0.00000000000000	4.78458800000000	0.00000000000000	
22.16991600000000	-58.93007200000000	795.93983300000002	55.48607900000000	0.15912500000000	0.00000000000000	0.09820400000000	-12.46214700000000	80.44316700000000	7.96254100000000	0.43626300000000	0.00000000000000	-0.10353500000000	0.00000000000000	29.32230100000000	0.00000000000000	0.00000000000000	5.02998800000000	0.00000000000000	
22.17158500000000	-59.64815800000000	794.21377900000005	55.28680200000000	0.15824500000000	0.00000000000000	0.09815100000000	-12.31255400000000	85.02447300000000	8.14720400000000	0.43833500000000	0.00000000000000	-0.10368500000000	0.00000000000000	29.22222900000000	0.00000000000000	0.00000000000000	5.25395900000000	0.00000000000000	
22.17325200000000	-60.37666100000000	792.35993900000005	55.06543200000000	0.15737000000000	0.00000000000000	0.09809500000000	-12.05078000000000	89.51233600000000	8.28652900000000	0.44031100000000	0.00000000000000	-0.10383200000000	0.00000000000000	29.11943300000000	0.00000000000000	0.00000000000000	5.45927900000000	0.00000000000000	
22.17492100000000	-61.11524500000000	790.37565700000005	54.82181500000000	0.15650200000000	0.00000000000000	0.09803600000000	-11.69305300000000	93.96075100000000	8.38713400000000	0.44219900000000	0.00000000000000	-0.10397400000000	0.00000000000000	29.01398500000000	0.00000000000000	0.00000000000000	5.64897400000000	0.00000000000000	
22.17658800000000	-61.86350800000000	788.25826700000005	54.55583800000000	0.15563900000000	0.00000000000000	0.09797400000000	-11.25467700000000	98.42255900000001	8.45535100000000	0.44400400000000	0.00000000000000	-0.10411400000000	0.00000000000000	28.90594600000000	0.00000000000000	0.00000000000000	5.82601200000000	0.00000000000000	
22.17825000000000	-62.62097300000000	786.00509599999998	54.26742900000000	0.15478300000000	0.00000000000000	0.09791000000000	-10.74911600000000	102.94600000000000	8.49677300000000	0.44573200000000	0.00000000000000	-0.10425000000000	0.00000000000000	28.79537300000000	0.00000000000000	0.00000000000000	5.99304900000000	0.00000000000000	
22.17992700000000	-63.38709200000000	783.61346800000001	53.95655900000000	0.15393300000000	0.00000000000000	0.09784300000000	-10.18737300000000	107.57219600000001	8.51594000000000	0.44738800000000	0.00000000000000	-0.10438400000000	0.00000000000000	28.68231300000000	0.00000000000000	0.00000000000000	6.15223600000000	0.00000000000000	
22.18158400000000	-64.16124200000000	781.08071099999995	53.62324300000000	0.15308900000000	0.00000000000000	0.09777300000000	-9.57766000000000	112.33359600000000	8.51615300000000	0.44897600000000	0.00000000000000	-0.10451700000000	0.00000000000000	28.56680400000000	0.00000000000000	0.00000000000000	6.30510800000000	0.00000000000000	
22.18324900000000	-64.94272400000000	778.40416200000004	53.26753700000000	0.15225000000000	0.00000000000000	0.09770100000000	-8.92535500000000	117.25332299999999	8.49942300000000	0.45049700000000	0.00000000000000	-0.10464700000000	0.00000000000000	28.44887500000000	0.00000000000000	0.00000000000000	6.45253000000000	0.00000000000000	
22.18493100000000	-65.73076000000000	775.58117000000004	52.88953900000000	0.15141800000000	0.00000000000000	0.09762500000000	-8.23316400000000	122.34531100000000	8.46651500000000	0.45195400000000	0.00000000000000	-0.10477700000000	0.00000000000000	28.32854400000000	0.00000000000000	0.00000000000000	6.59470400000000	0.00000000000000	
22.18658900000000	-66.52449500000000	772.60910500000000	52.48939100000000	0.15059200000000	0.00000000000000	0.09754700000000	-7.50146800000000	127.61507400000001	8.41708600000000	0.45335000000000	0.00000000000000	-0.10490500000000	0.00000000000000	28.20581800000000	0.00000000000000	0.00000000000000	6.73122200000000	0.00000000000000	
22.18825100000000	-67.32299399999999	769.48536300000001	52.06727600000000	0.14977100000000	0.00000000000000	0.09746700000000	-6.72877400000000	133.06094100000001	8.34987600000000	0.45468500000000	0.00000000000000	-0.10503300000000	0.00000000000000	28.08069600000000	0.00000000000000	0.00000000000000	6.86116200000000	0.00000000000000	
22.18991700000000	-68.12524100000000	766.20737299999996	51.62341900000000	0.14895600000000	0.00000000000000	0.09738300000000	-5.91223700000000	138.67555999999999	8.26293400000000	0.45596100000000	0.00000000000000	-0.10516000000000	0.00000000000000	27.95316300000000	0.00000000000000	0.00000000000000	6.98319700000000	0.00000000000000	
22.19158400000000	-68.93013999999999	762.77260500000000	51.15808500000000	0.14814500000000	0.00000000000000	0.09729700000000	-5.04818200000000	144.44753200000000	8.15385300000000	0.45717800000000	0.00000000000000	-0.10528700000000	0.00000000000000	27.82319200000000	0.00000000000000	0.00000000000000	7.09571900000000	0.00000000000000	
22.19325300000000	-69.73651300000000	759.17857500000002	50.67158100000000	0.14734000000000	0.00000000000000	0.09720800000000	-4.13260100000000	150.36301300000000	8.02000300000000	0.45833700000000	0.00000000000000	-0.10541400000000	0.00000000000000	27.69074700000000	0.00000000000000	0.00000000000000	7.19695900000000	0.00000000000000	
22.19491800000000	-70.54310300000000	755.42285800000002	50.16425200000000	0.14653900000000	0.00000000000000	0.09711700000000	-3.16158600000000	156.40717300000000	7.85873300000000	0.45943800000000	0.00000000000000	-0.10554100000000	0.00000000000000	27.55577800000000	0.00000000000000	0.00000000000000	7.28510400000000	0.00000000000000	
22.19658500000000	-71.34857000000000	751.50309200000004	49.63648200000000	0.14574100000000	0.00000000000000	0.09702400000000	-2.13168200000000	162.56543600000001	7.66754400000000	0.46048100000000	0.00000000000000	-0.10566800000000	0.00000000000000	27.41822400000000	0.00000000000000	0.00000000000000	7.35839000000000	0.00000000000000	
22.19825100000000	-72.15149900000000	747.41699200000005	49.08869300000000	0.14494700000000	0.00000000000000	0.09692800000000	-1.04014900000000	168.82445500000000	7.44421900000000	0.46146600000000	0.00000000000000	-0.10579600000000	0.00000000000000	27.27801400000000	0.00000000000000	0.00000000000000	7.41518300000000	0.00000000000000	
22.19991700000000	-72.95039199999999	743.16235400000005	48.52134300000000	0.14415600000000	0.00000000000000	0.09682900000000	0.11487000000000	175.17278899999999	7.18691200000000	0.46239300000000	0.00000000000000	-0.10592400000000	0.00000000000000	27.13506300000000	0.00000000000000	0.00000000000000	7.45403100000000	0.00000000000000	
22.20158600000000	-73.74367900000000	738.73707400000001	47.93492500000000	0.14336700000000	0.00000000000000	0.09672900000000	1.33427300000000	181.60130200000000	6.89420000000000	0.46326200000000	0.00000000000000	-0.10605200000000	0.00000000000000	26.98927700000000	0.00000000000000	0.00000000000000	7.47370100000000	0.00000000000000	
